<svg width="824" height="836" viewBox="0 0 824 836" fill="none" xmlns="http://www.w3.org/2000/svg">
<path d="M562.81 857.328C564.003 867.487 560.817 870.08 537.595 875.615C528.499 877.783 521.429 873.036 519.552 865.403C508.251 819.477 500.847 643.105 322.043 533.327C321.946 533.266 290.234 514.442 290.137 514.385C266.638 500.568 165.569 569.019 143.41 583.695C129.862 592.671 51.835 654.32 27.2719 616.342C10.3014 590.106 46.3416 538.796 62.0912 509.072C114.182 410.759 97.3776 395.131 140.576 331.667C158.522 305.305 195.422 323.521 216.628 339.804C309.114 410.816 291.635 460.802 371.6 534.072C407.168 566.662 467.346 626.025 493.99 668.322C543.81 747.423 566.089 856.913 562.806 857.323L562.81 857.328ZM52.7321 621.725C88.7213 623.833 129.871 581.427 206.765 537.146C255.124 509.298 271.632 511.41 276.644 507.238C273.537 504.051 258.582 498.456 231.518 475.544C199.279 448.253 137.552 384.439 139.11 343.844C139.549 332.412 113.368 395.296 110.718 405.375C81.0361 518.43 15.2306 572.395 30.7954 610.402C35.4473 621.758 43.2342 621.169 52.7321 621.725ZM165.745 323.483C160.136 324.101 157.315 323.912 151.734 327.985C138.574 337.598 145.63 360.533 153.491 374.968C164.866 395.843 188.551 425.359 204.966 441.879C300.227 537.763 317.886 494.887 426.067 616.705C429.368 620.419 444.961 639.569 462.407 669.411C465.737 675.105 465.459 666.36 478.347 662.419C483.526 660.835 483.179 660.171 482.185 658.686C431.87 583.869 354.629 538.824 317.16 476.246C291.321 433.092 238.389 332.978 165.745 323.483ZM485.981 665.63C477.463 666.455 473.773 669.439 467.859 675.648C466.324 677.26 467.008 677.444 472.687 688.376C474.222 691.332 475.244 678.552 491.941 675.648C493.671 675.346 493 674.945 487.877 666.813C487.364 665.993 486.716 665.408 485.981 665.63Z" fill="#3FA34D"/>
<path d="M180.653 433.902C170.785 431.583 167.21 429.353 168.343 431.135C182.59 453.505 182.673 453.236 181.651 454.33C179.076 457.078 159.414 427.805 159.35 427.706C158.263 426.098 119.869 409.777 121.173 406.85C121.779 405.492 123.087 406.69 123.897 406.977C163.608 421.054 155.757 428.149 136.372 387.823C135.004 384.975 135.818 382.265 137.857 385.371C166.619 429.179 157.805 419.833 178.378 429.895C183.33 432.318 182.216 432.856 180.653 433.902Z" fill="#3FA34D"/>
<path d="M39.1137 591.865C54.7061 594.373 52.4362 596.108 43.9186 582.422C40.0575 576.218 39.7472 567.93 41.9067 571.037C60.8885 598.394 57.2822 595.052 66.6228 596.556C80.435 598.776 81.3644 599.031 82.8488 598.705C83.3389 598.597 84.051 599.314 83.3297 599.941C79.3109 603.415 67.5893 600.916 65.5866 601.633C66.4051 603.995 75.9677 609.063 75.0336 611.274C74.3261 612.947 72.3475 612.457 70.7244 611.722C64.2322 608.775 62.6087 606.399 56.8424 600.704C54.7709 598.663 34.5086 597.975 35.0866 593.751C35.4658 590.983 39.0217 592.586 39.1095 591.86L39.1137 591.865Z" fill="#3FA34D"/>
<path d="M289.522 444.43L289.49 444.368C218.857 324.073 137.621 309.656 156.954 356.3C165.495 376.901 165.537 382.045 193.212 415.648C209.956 435.977 233.164 457.347 255.304 472.81C265.033 479.608 292.209 497.423 301.878 490.408C308.684 485.468 304.527 469.995 289.522 444.43ZM161.158 339.177C164.825 331.804 198.169 341.077 237.515 381.955C274.785 420.664 302.109 473.748 300.712 481.621C300.606 482.535 300.583 485.024 298.202 486.076C287.058 491.007 242.5 457.12 227.522 444.232C190.909 412.702 152.316 356.922 161.158 339.177Z" fill="#3FA34D"/>
<path d="M202.099 372.489C204.208 395.136 200 388.833 216.323 398.243C237.991 410.741 228.678 408.61 228.896 388.47C228.928 385.491 231.619 385.425 232.285 387.961C239.374 415.016 228.008 404.452 246.957 416.855C251.521 419.844 251.864 420.132 252.252 420.74C252.742 421.513 251.882 422.324 249.82 421.258C233.159 412.655 235.947 413.291 236.202 417.506C237.09 432.337 236.165 417.506 237.21 432.328C237.307 433.69 236.882 432.931 253.806 442.996C259.651 446.471 261.741 448.493 261.56 446.443C261.181 442.049 260.034 430.367 260.21 427.698C260.335 425.817 262.744 425.129 263.433 426.963C265.098 431.385 265.69 441.177 265.639 445.537C265.56 452.67 263.845 448.399 285.804 464.503C287.797 465.964 286.313 467.351 284.671 466.455C277.925 462.782 276.584 461.849 267.359 456.427C264.293 454.622 267.673 467.105 264.751 467.204C261.204 467.327 263.863 454.268 260.122 452.203C240.081 441.153 237.561 437.891 237.372 440.102C237.066 443.586 237.802 444.265 236.451 444.882C235.628 445.259 235.124 446.065 233.913 438.169C233.423 434.991 221.326 431.319 215.222 426.972C214.228 426.265 210.732 419.533 231.781 430.301C234.001 431.437 232.174 429.523 231.323 412.4C231.245 410.816 205.267 397.093 204.652 396.782C203.149 396.027 205.207 414.488 204.272 414.62C202.122 414.917 201.789 412.381 200.083 396.692C199.399 390.417 178.216 386.033 179.714 381.823C181.379 377.142 199.274 390.639 199.084 387.461C197.942 368.048 197.285 367.468 195.158 366.935C195.034 366.902 173.374 356.366 171.927 355.659C170.734 355.079 167.696 353.655 168.047 352.382C168.894 349.341 175.501 352.901 195.861 362.41C197.97 363.395 194.728 356.446 197.364 354.98C198.83 354.164 199.819 356.243 200.06 357.261C201.544 363.465 200.615 364.814 203.403 366.275C230.833 380.649 230.19 380.847 229.585 382.719C229.136 384.114 203.63 370.702 202.76 370.669C201.891 370.636 202.095 371.786 202.095 372.493L202.099 372.489Z" fill="#3FA34D"/>
<path d="M199.685 610.868C197.609 635.312 197.928 684.482 198.737 690.955C199.648 698.257 205.41 675.2 205.017 614.432C204.957 605.06 200.018 606.951 199.685 610.868Z" fill="#3FA34D"/>
<path d="M289.994 624.742C279.141 594.015 277.342 584.388 273.102 586.259C271.363 587.028 271.715 589.508 272.311 591.337C294.192 658.827 311.468 685.529 289.994 624.742Z" fill="#3FA34D"/>
<path d="M30.7536 298.734C29.5606 300.714 39.4469 311.392 40.9312 312.938C88.2957 362.198 81.4105 343.793 79.3435 341.851C74.4188 337.221 36.543 302.18 30.749 298.734H30.7536Z" fill="#3FA34D"/>
<path d="M125.261 297.48C126.782 296.424 126.505 295.349 125.094 291.394C119.046 274.417 101.572 221.905 104.54 239.711C106.131 249.252 117.571 302.812 125.261 297.48Z" fill="#3FA34D"/>
<path d="M57.6011 412.636C56.9861 412.188 -3.8991 396.183 0.197839 399.238C9.17319 405.942 47.9599 418.392 56.6254 416.827C58.3826 416.511 59.4091 413.942 57.6011 412.636Z" fill="#3FA34D"/>
<path d="M138.634 615.908C131.434 615.908 87.3621 726.859 139.494 622.611C141.048 619.505 142.056 615.908 138.634 615.908Z" fill="#3FA34D"/>
<path d="M814.365 16.4088L814.304 16.3569C763.292 -36.4526 675.887 34.2666 709.819 99.1166C721.855 122.118 744.125 134.851 763.537 134.097C812.293 136.03 863.782 67.6628 814.365 16.4088ZM805.223 94.0818C774.121 130.872 718.059 126.29 707.784 81.5841C699.137 43.8885 734.904 0.238877 775.971 2.27074C821.236 4.53814 835.737 57.9748 805.227 94.0818H805.223Z" fill="#3FA34D"/>
<path d="M703.23 -20C660.873 -20 606.212 16.6257 630.83 21.109C635.644 21.9905 646.376 20.2227 651.051 19.5108C646.571 22.5468 634.058 29.0856 628.888 37.5383C619.381 53.1003 642.039 49.1591 659.079 41.8661C660.295 41.3428 660.091 41.4088 659.749 41.7624C656.235 45.4395 652.679 50.1208 656.008 54.0101C657.437 55.679 659.814 56.6077 661.904 56.3343C668.281 55.5093 669.571 54.9907 673.834 53.27C674.015 53.1993 678.204 51.4738 678.375 51.5587C679.064 51.9123 678.477 56.0231 682.99 57.1687C688.58 58.5877 703.558 52.511 701.186 49.2817C699.812 47.3865 688.261 55.3867 683.429 52.7326C682.084 51.9971 682.833 51.1721 683.929 49.1874C685.182 46.8962 683.226 45.3877 681.385 46.1844C674.949 48.9328 656.286 56.1646 659.088 49.4703C662.815 40.5744 679.009 34.8748 676.919 31.3343C674.727 27.6194 650.506 45.4678 633.221 44.1667C626.442 43.6575 636.828 33.9555 642.372 30.0049C657.211 19.4212 669.548 15.2538 671.522 13.7169C672.84 12.6939 672.428 10.6432 670.426 10.2331C669.626 10.0539 639.981 19.9492 629.665 16.6257C623.607 14.6928 652.822 -8.81294 693.334 -14.4701C739.524 -20.9193 728.389 8.63019 734.377 7.31961C738.197 6.42389 738.59 -19.9953 703.239 -19.9953L703.23 -20Z" fill="#3FA34D"/>
<path d="M845.786 69.0521L845.693 69.0332C838.327 67.9725 835.816 74.9214 841.18 73.6627C845.467 72.6632 850.331 74.0351 854.507 77.4294C868.027 88.4185 866.118 110.411 866.576 111.255C866.959 113.414 866.293 148.691 851.52 174.704C851.422 174.879 851.316 174.935 851.316 174.935C851.015 174.907 850.22 173.823 849.411 171.503C844.417 157.012 848.075 137.405 845.037 136.259C840.847 134.656 839.589 155.475 829.324 166.379C825.292 164.258 825.185 147.357 825.37 142.69C825.481 139.889 825.569 137.678 823.553 137.188C821.449 136.688 820.714 138.112 818.943 141.572C815.724 147.823 811.789 147.267 813.232 139.941C817.186 119.853 819.174 120.41 817.163 118.562C811.863 113.706 800.183 166.148 820.621 147.126C821.292 151.878 821.204 170.311 828.908 171.188C834.905 171.862 839.391 159.355 841.809 153.033C842.766 150.515 842.54 150.746 842.595 152.052C846.114 242.732 902.44 77.3351 845.776 69.0426L845.786 69.0521Z" fill="#3FA34D"/>
<path d="M700.196 226.629C697.954 224.276 695.101 223.635 694.19 223.885C693.131 223.989 693.089 225.54 693.764 226.007C695.873 227.454 700.636 234.935 697.422 234.629C692.312 234.12 689.709 234.2 691.045 239.716C694.088 247.07 694.051 250.276 693.001 252.063C690.467 256.367 675.064 252.317 672.655 241.328C672.253 239.504 671.384 238.669 669.844 238.631C666.246 238.429 664.443 247.876 654.358 247.136C645.29 246.467 643.316 235.784 649.748 228.642C654.51 223.362 661.553 222.296 655.111 217.775C649.979 214.174 647.024 212.764 645.16 208.309C643.339 203.925 648.397 199.258 653.868 202.982C658.871 206.395 659.689 209.742 660.762 210.996C662.163 212.646 663.907 210.888 663.782 208.917C663.634 206.555 660.198 201.195 655.366 198.503C644.804 192.639 629.998 205.74 650.187 220.25C650.732 220.642 650.797 220.797 650.797 220.797C650.663 221.349 648.027 222.419 645.036 226.681C633.115 243.666 650.52 262.005 668.526 246.226C668.618 246.146 668.776 246.009 668.873 245.939C668.919 245.995 668.988 246.108 669.099 246.32C677.95 263.971 703.59 262.415 698.115 244.967C697.51 243.03 696.451 239.895 696.381 239.541C700.141 239.178 703.318 239.268 703.489 234.964C703.6 232.074 702.342 228.882 700.196 226.629Z" fill="#3FA34D"/>
<path d="M718.054 132.234C710.891 140.173 676.317 193.883 668.738 217.195C668.701 217.308 668.706 217.431 668.752 217.539C669.006 218.114 669.196 218.704 669.682 218.708C670.135 218.708 670.306 218.331 670.856 217.105C679.711 197.442 720.227 135.086 720.704 134.27C721.989 132.064 719.483 130.659 718.054 132.234Z" fill="#3FA34D"/>
<path d="M724.477 144.609C722.309 146.801 680.044 210.294 684.867 210.878C686.657 211.095 725.319 149.215 726.859 146.594C727.992 144.661 725.749 143.313 724.477 144.609Z" fill="#3FA34D"/>
<path d="M856.726 98.401C857.082 89.2175 852.855 87.907 852.472 91.1033C852.273 92.7391 854.294 103.568 848.685 108.706C844.148 112.874 842.618 105.694 839.677 106.293C838.66 106.495 837.772 107.608 836.81 109.895C835.7 112.53 833.444 115.41 831.599 115.674C830.683 115.792 830.332 115.387 829.633 114.717C827.127 111.497 828.075 108.857 827.714 106.887C827.664 106.599 827.372 106.425 827.09 106.533C820.542 109.154 826.091 125.504 834.563 119.927C839.816 116.471 840.297 112.648 840.759 112.233C841.221 112.28 844.884 116.287 849.804 113.553C854.123 111.167 857.225 104.336 856.726 98.3916V98.401Z" fill="#3FA34D"/>
<path d="M709.204 -5.33485C708.39 -12.5807 688.211 -2.36013 685.635 5.73892C683.744 11.6884 692.312 13.164 692.497 13.8192C692.687 14.5358 685.695 21.3433 689.071 26.6375C691.193 29.961 696.58 30.852 699.165 30.852C699.803 30.852 700.811 30.8662 700.89 30.2486C701.362 26.4159 691.281 26.4536 692.173 22.7529C693.066 19.038 697.824 15.2854 696.71 12.1221C695.632 9.07193 690.287 9.11436 689.755 7.65293C689.468 6.85621 690.717 4.7442 691.189 4.27748C703.697 -8.15872 709.532 -2.52512 709.204 -5.33485Z" fill="#3FA34D"/>
<path d="M805.579 28.7471C795.693 13.4492 773.834 3.70937 747.283 16.4475L747.167 16.5135C713.037 32.99 701.246 85.5168 737.702 102.564C780.29 122.482 829.791 66.2164 805.579 28.7471ZM756.573 102.639C730.747 102.809 709.578 77.0405 725.522 45.2519C736.181 24.0045 759.828 9.64001 783.735 17.1169C823.909 29.6617 811.872 96.8595 756.568 102.644L756.573 102.639Z" fill="#3FA34D"/>
<path d="M782.916 44.3689C781.862 39.367 779.92 36.2461 776.424 33.922C774.473 32.9508 775.915 33.0451 777.187 28.3544C777.927 25.5871 774.732 24.1256 773.007 25.9736C770.561 28.6042 771.129 32.4794 767.883 31.1782C767.837 31.1594 767.786 31.15 767.731 31.1452C758.039 30.4994 751.26 38.3063 751.953 45.6182C753.327 59.978 769.927 58.3232 768.105 68.0441C767.398 71.8203 763.81 75.2523 759.579 76.214C756.966 76.808 751.921 76.9023 747.635 70.868C743.875 65.5833 743.533 63.5891 740.967 64.6828C738.197 65.8614 739.011 68.6381 740.532 71.2734C746.737 81.9325 750.686 79.5801 749.627 81.7722C748.291 84.5725 747.695 87.2267 750.534 88.3251C755.648 90.3098 754.127 81.5978 757.045 82.4699C759.68 83.2761 766.718 81.8806 770.829 76.3508C773.391 72.8999 774.473 68.4166 773.724 64.3623C771.62 53.0055 758.196 54.6366 757.969 44.5386C757.877 40.3193 762.519 35.9161 768.605 37.0853C776.225 38.5467 775.689 42.04 777.492 46.7072C778.926 50.4221 783.647 47.8622 782.916 44.3689Z" fill="#3FA34D"/>
<path d="M721.55 328.763C674.953 290.295 596.057 328.999 594.508 403.848C593.805 437.632 629.725 482.036 673.82 482.036C738.872 482.036 795.466 389.795 721.55 328.763ZM727.108 430.169C688.821 484.539 617.152 473.168 602.725 421.131C588.168 368.628 633.47 316.709 679.087 318.812C728.232 316.61 763.458 378.551 727.108 430.169Z" fill="#3FA34D"/>
<path d="M592.996 317.916C552.406 317.916 484.848 375.162 486.244 393.312C487.206 405.781 510.789 390.615 521.36 384.19C505.485 403.712 508.593 401.812 505.716 405.654C500.39 414.748 499.002 421.433 501.906 423.997C509.587 430.753 538.048 404.994 541.636 402.41C540.568 405.442 539.384 408.134 539.454 412.348C539.537 417.293 541.567 419.363 543.255 420.226C549.863 423.615 556.831 415.04 563.878 410.288C565.432 414.498 568.086 418.83 574.287 417.223C582.324 415.144 585.912 409.784 585.121 408.808C584.122 407.577 572.202 413.97 570.431 411.566C567.305 407.276 569.575 407.657 569.09 404.862C567.642 396.64 559.61 410.547 546.903 415.691C545.359 416.289 544.785 414.583 544.711 412.9C544.129 400.883 557.201 390.794 552.313 387.838C551.06 387.079 549.007 389.031 544.499 393.293C538.682 398.79 529.887 407.101 517.013 414.983C510.424 419.009 506.632 420.594 505.74 419.684C505.111 419.047 505.37 416.558 510.174 408.336C517.776 395.315 528.939 383.534 540.036 371.414C542.265 368.981 540.134 365.563 537.123 367.982C522.437 379.744 490.67 396.937 491.396 391.742C494.596 368.439 600.783 291.412 613.254 337.31C613.98 340.007 616.843 339.554 617.06 336.976C617.901 326.802 603.252 317.921 592.987 317.921L592.996 317.916Z" fill="#3FA34D"/>
<path d="M788.114 367.524C776.359 367.524 760.323 380.941 761.502 383.788C764.679 391.43 797.662 340.634 810.897 406.728C822.854 466.469 811.211 522.376 805.773 524.191C805.005 524.45 804.215 523.837 802.883 522.753C787.67 510.411 787.499 461.981 782.653 461.707C778.047 461.462 781.446 467.365 775.717 488.98C774.981 491.771 773.83 494.571 772.706 497.517C772.443 498.21 772.198 498.319 771.597 497.489C765.696 489.305 764.739 473.927 762.765 467.596C761.923 464.923 758.728 464.498 756.938 468.614C756.217 470.283 753.146 474.403 752.499 472.899C751.634 470.886 751.583 468.92 750.71 464.578C748.962 455.876 750.187 452.901 749.799 451.03C749.174 447.975 742.599 453.858 747.13 472.979C747.81 475.86 749.114 477.868 750.802 478.637C754.645 480.376 758.21 475.327 759.102 474.615C760.161 475.421 760.508 486.552 765.137 496.16C767.782 501.642 770.302 504.16 772.692 503.877C778.431 503.198 781.284 486.373 782.768 480.527C784.923 492.402 787.471 511.905 796.955 523.866C827.594 562.495 835.316 367.524 788.114 367.524Z" fill="#3FA34D"/>
<path d="M593.333 600.582C592.228 600.021 591.595 599.728 591.16 599.474C591.549 599.375 592.302 599.243 593.727 599.092C604.787 597.904 612.981 593.421 613.647 588.188C615.094 576.812 579.803 572.041 562.384 582.257C560.341 583.454 561.649 586.288 563.753 585.166C573.242 580.202 601.416 578.9 608.741 586.062C612.482 589.734 599.109 593.326 593.911 594.081C582.004 595.797 579.433 595.052 579.077 597.597C578.763 599.851 581.607 600.638 582.675 600.93C582.832 600.973 582.952 601.006 583.017 601.029C610.318 611.967 619.446 631.715 607.349 635.75C593.518 640.347 565.27 619.189 561.589 617.336C557.719 615.403 557.848 621.287 557.441 622.777C556.489 626.345 554.075 630.343 550.616 629.174C536.887 624.535 538.968 601.722 535.454 601.218C529.359 600.336 534.617 618.906 538.14 624.846C540.896 629.499 546.325 634.232 551.657 634.232C559.864 634.232 561.589 623.446 561.843 622.843C561.843 622.843 561.936 622.899 562.005 622.951C574.273 632.101 597.99 646.631 611.548 639.625C615.446 637.608 617.596 633.978 617.596 629.4C617.596 621.895 611.307 609.718 593.338 600.577L593.333 600.582Z" fill="#3FA34D"/>
<path d="M540.388 533.115C539.139 524.304 534.562 515.682 526.812 519.788C517.397 524.771 515.362 535.963 514.382 541.342C514.248 542.072 514.128 542.746 514.012 543.227C512.542 541.332 509.411 535.491 504.584 533.308C492.783 527.939 492.64 553.49 502.026 569.17C512.648 586.915 519.829 581.946 514.22 578C498.808 567.148 493.823 528.952 505.495 539.428C510.757 544.156 511.885 552.665 515.792 551.798C516.958 551.539 517.785 550.52 517.952 549.134C520.019 532.078 525.23 523.385 529.438 523.385C529.54 523.385 529.646 523.389 529.748 523.399C533.614 523.8 537.174 531.965 535.866 548.95C535.81 549.13 535.866 549.342 536.037 549.464C536.111 568.27 543.084 552.232 540.383 533.11L540.388 533.115Z" fill="#3FA34D"/>
<path d="M620.847 485.402C620.463 482.908 617.3 482.403 616.028 483.865C615.52 484.445 615.154 485.138 614.748 485.746C593.255 518.223 593.162 516.257 555.536 554.985C554.963 555.466 551.421 559.247 552.78 560.765C553.4 561.448 554.482 561.113 555.203 560.505C570.292 547.597 611.497 508.987 620.819 485.651C620.851 485.571 620.861 485.486 620.847 485.402Z" fill="#3FA34D"/>
<path d="M631.265 494.835C628.07 493.656 618.146 513.023 599.077 531.885C569.936 560.722 569.274 559.977 570.606 561.575C573.316 564.791 623.187 519.896 632.093 498.083C632.111 498.031 632.125 497.984 632.13 497.928C632.227 496.023 631.968 495.094 631.265 494.835Z" fill="#3FA34D"/>
<path d="M789.926 396.481C788.414 395.524 786.537 396.877 787.48 399.111C790.458 406.098 791.855 413.829 791.323 420.321C790 436.212 779.106 428.043 776.951 427.831C770.094 427.086 777.488 442.355 770.006 440.559C766.455 439.706 763.356 438.023 762.025 436.816C761.673 436.505 761.091 435.981 760.314 436.41C759.389 436.91 759.759 437.693 759.921 438.027C759.972 438.131 760.041 438.277 760.041 438.343C760.161 443.6 772.175 449.818 777.155 442.954C779.018 440.38 778.722 437.693 778.796 434.02C780.632 434.053 784.211 437 789.233 434.204C794.879 431.05 796.238 424.097 796.382 418.817C796.65 409.172 793.057 398.48 789.926 396.49V396.481Z" fill="#3FA34D"/>
<path d="M579.591 384.562C579.003 384.208 578.541 380.635 578.55 376.411C578.55 371.631 576.081 370.683 573.473 369.66C570.49 368.491 570.708 368.118 572.266 363.692C574.467 357.431 575.526 355.39 569.473 353.226C568.192 352.764 567.263 352.608 567.263 351.397C567.263 348.219 573.653 341.577 577.57 339.974C580.085 338.951 578.865 336.287 576.613 336.745C570.588 337.999 561.025 347.328 562.347 352.877C563.217 356.517 568.141 357.455 568.937 358.214C565.362 366.709 563.767 371.178 572.289 374.813C574.49 376.001 571.633 383.949 577.81 386.999C577.875 387.032 577.94 387.051 578.009 387.051H578.06C580.617 386.749 580.807 385.293 579.581 384.557L579.591 384.562Z" fill="#3FA34D"/>
<path d="M711.78 344.514C680.622 309.194 608.482 345.82 613.296 408.459C615.192 433.082 634.964 452.694 660.267 452.694C710.66 452.694 746.358 383.709 711.78 344.514ZM720.477 386.514C716.649 438.886 652.022 472.159 624.306 428.169C605.042 397.592 626.363 340.587 677.279 335.213C706.48 335.769 722.484 359.058 720.482 386.514H720.477Z" fill="#3FA34D"/>
<path d="M685.168 363.162C683.78 362.347 684.645 362.762 686.157 358.113C687.993 352.489 680.858 347.751 678.148 358.759C677.917 359.716 677.519 359.759 675.887 359.787C659.347 360.051 650.667 378.936 665.76 389.666C674.014 395.521 677.774 396.87 678.472 402.239C680.021 414.063 665.77 423.727 652.323 406.067C650.196 403.281 644.92 403.201 644.841 407.194C644.772 411.027 650.547 416.99 653.511 419.187C655.532 420.682 654.242 419.838 652.069 426.188C650.783 429.928 655.685 433.521 658.468 429.839C661.035 426.443 661.132 424.755 661.451 423.062C661.811 422.888 666.26 423.958 666.644 423.897C672.377 422.968 676.669 422.247 680.863 417.174C686.49 410.357 688.872 399.298 682.199 392.231C676.373 386.046 662.44 382.887 665.497 373.916C666.708 370.366 670.523 367.603 674.569 367.339C677.094 367.16 681.903 367.886 685.154 374.543C687.628 379.611 691.789 378.729 692.534 375.283C693.301 371.709 689.038 365.425 685.172 363.158L685.168 363.162Z" fill="#3FA34D"/>
<path d="M493.832 70.7219C471.803 51.9684 443.194 47.0419 424.619 50.4692C369.662 60.6097 344.396 115.876 348.53 162.726C354.768 233.578 445.548 274.998 499.122 202.713C527.135 164.923 533.29 104.321 493.832 70.7219ZM502.567 124.031C502.609 160.091 485.347 194.275 457.52 213.25C409.628 245.873 357.154 216.997 353.713 159.926C346.833 45.505 493.92 11.7694 502.567 124.031Z" fill="#3FA34D"/>
<path d="M556.646 100.506L556.577 100.539C539.199 107.078 523.218 129.169 527.621 131.088C529.443 131.88 533.817 125.29 537.965 120.721C546.08 111.797 556.729 104.004 568.71 104.358C621.059 106.329 614.049 274.903 596.427 263.57C587.808 258.011 584.881 244.491 577.048 221.862C576.22 219.463 572.715 218.972 571.573 221.956C570.514 224.667 570.102 247.418 562.375 256.456C555.902 264.055 550.783 226.671 549.613 216.601C547.99 202.557 543.347 215.059 531.403 221.094C529.808 221.9 528.411 218.506 528.18 216.563C526.839 205.174 530.455 190.554 523.625 194.199C521.332 195.434 519.307 198.913 518.576 199.073C518.035 198.507 517.984 190.328 517.989 189.305C518.003 186.316 518.007 185.076 517.249 184.85C516.662 184.666 516.158 185.284 515.51 186.316C510.257 194.684 512.255 210.666 522.247 203.674C522.876 208.441 520.375 221.193 526.987 225.638C532.485 229.339 539.028 223.366 544.295 219.359C546.394 231.842 549.016 264.513 561.215 263.259C564.821 262.9 571.457 258.601 575.522 233.936C575.572 234.058 579.531 245.787 580.455 248.295C588.797 270.915 602.517 279.796 609.398 256.871C625.605 202.887 610.669 80.3669 556.651 100.497L556.646 100.506Z" fill="#3FA34D"/>
<path d="M338.228 64.5424C293.67 63.0102 198.275 155.562 230.829 163.213C239.194 165.174 253.237 154.161 259.072 151.352C256.719 154.958 249.14 161.478 245.293 180.354C245.265 180.5 245.307 180.651 245.399 180.76C245.422 180.887 245.45 181.16 245.473 181.41C245.885 185.931 247.688 188.727 252.196 188.727C264.478 188.727 285.249 169.12 291.982 163.585C290.724 168.714 287.034 178.506 292.13 182.872C293.661 184.187 295.672 184.427 297.651 183.532C312.448 176.809 316.739 167.79 317.29 169.78C323.356 191.909 348.109 167.178 345.196 164.608C343.069 162.732 329.113 175.696 324.388 172.957C321.068 171.034 324.004 162.845 320.827 161.37C317.049 159.592 308.296 172.34 297.383 177.639C295.006 178.794 294.909 178.615 294.831 175.932C294.553 165.726 303.399 155.321 299.408 152.653C294.881 149.603 284.57 168.333 259.905 180.741C256.354 182.527 250.911 184.974 250.823 181.094C250.504 167.748 267.904 148.368 277.319 138.967C281.051 135.248 285.744 131.226 280.69 129.911C279.331 129.576 229.691 170.025 229.344 154.708C229.15 146.256 250.449 119.082 275.58 99.4141C288.19 89.5471 327.985 63.1564 344.859 71.0293C356.368 76.4036 361.422 96.0057 364.076 91.5035C366.476 87.4445 355.457 65.1364 338.237 64.5424H338.228Z" fill="#3FA34D"/>
<path d="M399.987 335.355C393.088 328.694 364.238 328.929 359.193 333.762C357.644 335.242 357.686 336.218 357.991 336.774C358.356 337.434 359.207 337.646 359.817 337.472C384.598 330.617 405.166 339.339 398.202 344.34C388.468 351.308 373.135 347.871 372.658 352.968C372.441 355.339 374.702 355.858 379.641 359.634C383.548 362.623 385.869 368.836 380.672 370.222C374.804 371.797 367.234 368.256 364.936 370.934C362.435 373.857 368.256 380.895 364.164 380.598C358.578 380.226 354.287 377.652 351.064 382.116C344.41 391.333 339.716 376.963 331.296 380.697C326.616 382.767 322.926 372.994 323.981 367.813C324.156 366.96 323.796 366.573 323.569 366.418C323.093 366.092 322.371 366.22 322.066 366.432C314.695 371.302 322.649 389.372 331.939 385.958C340.207 382.927 343.073 398.678 354.999 384.77C355.785 383.856 356.391 383.964 358.388 384.478C362 385.412 365.944 386.321 368.538 383.681C371.59 380.57 368.945 375.427 369.421 374.913C370.485 373.711 379.659 377.322 385.18 373.272C389.078 370.425 388.736 364.32 386.79 361.369C384.089 357.291 381.074 355.235 380.048 354.231C380.112 354.222 380.196 354.212 380.288 354.203C398.706 352.694 402.918 347.061 403.788 343.841C404.602 340.838 403.15 337.641 399.991 335.364L399.987 335.355Z" fill="#3FA34D"/>
<path d="M337.631 321.339C333.437 298.177 314.215 294.274 312.998 309.416C312.175 319.656 314.617 323.639 314.51 324.394C314.339 324.512 313.364 324.408 313.003 324.37C301.447 324.37 296.893 336 303.616 342.737C303.986 343.108 304.068 343.413 303.861 343.652C301.041 346.904 298.275 350.784 301.175 355.654C304.485 361.203 310.131 363.367 313.951 362.646C315.958 362.259 315.972 361.057 314.959 360.444C311.431 358.997 308.55 357.309 305.919 353.58C302.442 348.649 309.997 346.872 310.094 343.703C310.155 341.789 307.93 340.304 306.307 338.598C303.662 335.816 304.818 330.225 310.936 329.292C315.213 328.646 321.77 334.039 319.074 323.083C317.946 318.496 315.727 308.011 319.546 305.188C320.554 304.438 321.493 304.919 321.955 305.074C331.453 309.265 333.178 321.155 333.478 326.086C333.714 329.947 338.667 326.996 337.631 321.339Z" fill="#3FA34D"/>
<path d="M587.119 142.738C585.597 141.62 583.54 142.643 584.797 146.966C586.892 154.146 589.565 160.817 589.75 172.339C589.847 177.991 588.011 185.016 582.559 183.479C580.016 182.753 577.251 180.4 574.777 178.821C568.442 174.795 569.889 186.208 566.347 186.501C562.727 186.798 559.129 183.757 556.984 180.806C553.284 175.719 555.578 174.969 554.625 174.196C553.506 173.277 550.075 175.318 551.43 180.023L551.449 180.127C554.796 191.408 569.413 197.542 573.663 185.416C573.82 184.978 573.949 184.926 573.949 184.926C574.162 184.855 574.814 185.322 575.392 185.732C583.378 191.304 589.565 189.183 592.547 183.795C598.822 172.476 591.299 145.783 587.119 142.738Z" fill="#3FA34D"/>
<path d="M330.357 133.039C330.242 131.833 329.844 132.313 321.752 131.616C317.757 131.272 317.752 131.022 317.692 129.815C317.419 124.7 318.737 124.096 319.911 119.811C322.769 109.449 300.722 122.555 302.395 113.296C303.709 106.055 312.786 96.3338 318.552 92.3832C320.194 91.2612 319.491 89.4556 317.831 88.9323C312.014 87.1315 292.435 109.454 297.549 118.416C300.883 124.266 312.397 121.617 313.276 121.673C313.211 122.262 309.53 131.404 314.178 135.302C316.86 137.556 321.28 137.485 324.753 137.084C328.831 136.603 330.487 134.44 330.357 133.039Z" fill="#3FA34D"/>
<path d="M386.059 242.6C385.37 240.479 385.019 239.612 384.32 239.612C383.433 239.612 382.984 241.012 381.333 246.212C365.889 294.849 346.56 324.761 351.906 323.399C354.874 322.593 380.39 275.898 386.078 242.836C386.091 242.761 386.082 242.676 386.059 242.6Z" fill="#3FA34D"/>
<path d="M397.8 256.744C397.629 254.085 395.367 253.124 394.184 256.131C390.42 265.735 389.707 269.954 382.642 285.964C371.604 311.025 370.92 309.997 371.905 311.43C372.039 311.718 372.427 311.789 372.654 311.548C382.235 301.478 398.23 263.542 397.8 256.744Z" fill="#3FA34D"/>
<path d="M477.426 87.0805C466.527 72.8999 450.218 66.446 432.549 66.446C363.799 66.446 337.876 184.167 398.345 210.044C413.928 216.71 430.894 214.72 445.871 206.744C486.11 185.308 504.375 122.131 477.426 87.0805ZM483.743 144.171C476.922 178.703 450.986 209.29 415.63 208.804C371.243 208.45 350.81 140.018 388.755 94.1096C426.52 48.4091 497.541 74.3189 483.743 144.171Z" fill="#3FA34D"/>
<path d="M450.431 111.953C444.928 104.986 439.772 104.858 439.083 104.212C438.635 102.883 444.299 92.4643 438.94 90.2108C432.822 87.6557 433.053 103.232 431.255 103.387C407.2 105.344 398.872 128.255 420.693 140.979C425.65 143.86 430.478 145.722 433.053 148.456C443.587 159.657 427.81 174.998 412.06 165.216C406.608 161.835 404.037 157.427 399.723 156.357C394.845 155.146 393.85 164.952 409.202 173.649C413.04 175.813 412.49 174.328 411.228 178.632C409.97 182.918 409.734 186.977 414.122 186.977C417.322 186.977 418.455 183.997 420.101 177.869C420.393 176.789 420.42 176.907 422.302 176.898C436.683 176.836 448.627 164.782 443.851 150.7C440.369 140.456 433.664 138.556 426.594 134.686C418.978 130.528 415.288 125.337 416.471 120.444C417.734 115.225 424.365 111.359 432.24 111.326C436.216 111.312 444.752 113.811 445.178 120.208C445.511 125.332 450.579 126.907 452.438 123.579C453.866 121.028 453.497 115.857 450.422 111.953H450.431Z" fill="#3FA34D"/>
<path d="M119.221 578.127C115.624 570.358 116.063 570.872 115.332 570.745C115.083 570.698 114.75 570.863 114.56 571.051C107.767 582.106 97.1228 587.65 86.0851 585.892C62.0583 582.059 52.4495 548.47 66.2524 527.892C76.2866 512.933 95.5644 508.176 108.179 521.112C108.456 521.4 108.9 521.438 109.219 521.207L114.643 517.289C115.143 516.926 115.078 516.148 114.532 515.875C105.742 511.467 98.2094 508.181 87.8746 509.176C46.1284 513.235 41.8881 591.176 94.1079 591.176C105.987 591.176 112.253 585.892 119.055 579.061C119.3 578.816 119.365 578.438 119.217 578.123L119.221 578.127Z" fill="#3FA34D"/>
<path d="M126.463 432.582C105.825 436.5 87.8469 464.281 96.1887 491.808C100.036 504.523 107.157 509.713 116.789 515.658C117.487 516.082 118.246 515.262 121.501 513.004C122.037 512.631 121.945 511.797 121.339 511.552C114.824 508.959 103.929 500.959 100.628 489.531C94.8061 469.378 104.105 447.329 121.802 439.338C143.438 429.561 167.464 443.524 163.714 482.724C163.649 483.389 164.352 483.855 164.926 483.516C172.283 479.155 172.435 479.518 172.528 478.778C176.153 448.257 155.876 427 126.463 432.582Z" fill="#3FA34D"/>
<path d="M129.316 468.076C116.419 469.029 123.073 453.778 132.067 459.322C133.154 459.987 134.638 461.882 136.918 460.472C138.828 459.284 137.292 457.097 135.623 455.555C133.94 454 132.331 453.599 131.156 453.302C129.922 452.995 129.769 452.892 129.811 452.378C130.287 446.476 123.527 445.325 124.146 452.92C124.211 453.688 124.091 453.745 123.318 454.117C114.061 458.587 115.98 471.471 125.006 472.843C130.56 473.687 136.58 472.022 135.859 479.523C135.276 485.614 128.021 486.981 122.777 483.855C120.849 482.7 119.873 482.12 118.449 483.563C117.127 484.883 117.968 486.349 119.314 487.65C122.962 491.177 128.141 490.399 128.793 490.823C129.006 491.007 129.21 491.832 129.399 493.284C129.612 494.976 130.911 495.797 132.201 495.797C135.188 495.797 134.814 492.478 134.43 489.484C134.43 489.484 134.481 489.437 134.652 489.343C144.589 484.115 142.458 467.105 129.311 468.072L129.316 468.076Z" fill="#3FA34D"/>
<path d="M193.868 463.169C159.118 480.513 154.184 485.793 99.5504 524.766C93.9506 528.759 92.6559 527.081 103.361 546.31C116.692 570.254 116.216 581.753 120.382 581.017C129.071 581.639 148.945 549.361 228.955 514.154C234.712 511.623 233.122 511.415 220.082 482.337C208.105 455.635 214.08 453.085 193.877 463.169H193.868ZM109.39 543.369C102.246 530.527 102.024 530.918 103.592 529.791C116.364 520.594 118.329 518.251 119.143 520.556C121.094 526.077 117.025 536.637 113.215 541.03C112.664 541.667 111.027 546.306 109.39 543.369ZM129.131 567.859C122.694 572.527 122.324 573.663 121.695 572.093C115.938 557.672 114.144 556.55 119.064 555.857C127.748 554.641 134.444 557.743 137.352 560.543C138.656 561.802 138.444 561.104 129.131 567.859ZM143.401 532.705C126.943 516.455 158.609 482.828 182.539 495.141C207.606 508.04 164.986 554.018 143.401 532.705ZM217.284 494.811C218.838 493.779 219.028 493.793 219.86 495.533C226.195 508.733 226.389 508.624 225.164 509.171C209.289 516.228 208.341 517.761 208.341 512.551C208.905 505.381 211.009 498.983 217.28 494.811H217.284ZM211.731 478.429C204.878 485.331 183.024 475.633 189.378 472.277C200.517 466.389 202.187 466.228 205.414 464.758C206.755 464.145 206.316 464.442 209.812 472.135C212.23 477.449 212.859 477.288 211.731 478.429Z" fill="#3FA34D"/>
<path d="M102.861 557.243C102.713 550.388 98.7551 544.755 92.0779 545.207C84.1753 545.74 83.3153 548.536 80.2218 545.061C75.7965 540.097 82.3442 533.789 88.1659 535.92C96.4477 538.942 94.8477 531.291 90.1312 530.687C84.3742 529.942 83.9303 530.239 83.8979 529.004C83.8147 526.279 80.3189 523.295 78.1085 526.529C76.2959 529.164 79.4495 531.555 77.9559 532.733C68.5413 540.187 75.4266 554.174 85.4562 551.963C86.4735 551.741 87.5001 551.557 88.5266 551.374C91.4722 550.85 94.4084 549.841 96.4847 552.552C99.6152 556.644 96.9193 564.475 90.0109 564.555C87.9347 564.588 86.0065 564.776 84.1707 563.994C81.1096 562.693 77.4704 566.662 83.1719 569.392C90.071 572.682 92.2397 567.398 94.1819 571.711C96.3552 576.529 102.186 573.96 99.0556 567.822C98.6117 566.95 99.0325 566.365 100.017 565.121C101.261 563.555 102.963 561.41 102.871 557.252L102.861 557.243Z" fill="#3FA34D"/>
<path d="M176.25 514.583C175.108 511.651 172.149 510.194 170.553 510.458C167.432 510.359 165.693 511.637 161.499 513.042C159.728 513.636 158.105 513.376 159.002 511.712C161.25 507.592 166.313 506.875 168.38 506.753C169.601 506.663 170.724 505.282 170.502 504.051C170.021 501.388 164.695 502.213 162.942 502.491C162.443 502.571 162.29 502.529 162.387 502.524C162.262 502.175 162.026 501.52 161.157 501.138C158.138 499.823 156.413 502.217 157.416 504.975C157.583 505.433 157.495 505.593 157.217 505.805C151.081 510.435 153.352 518.076 158.101 518.595C161.624 518.986 162.299 518.784 165.254 517.624C169.823 515.842 170.276 515.559 170.868 516.431C172.366 518.666 167.437 520.891 164.912 522.036C162.17 523.286 159.585 524.46 160.163 526.911C160.921 530.098 164.486 528.467 166.909 527.581C167.289 528.698 168.44 529.909 169.753 529.909C171.27 529.909 172.31 528.396 171.991 526.883C171.691 525.398 172.694 524.912 174.326 523.14C176.602 520.679 177.332 517.398 176.236 514.583H176.25Z" fill="#3FA34D"/>
</svg>
